<svg height="60" viewBox="0 0 347 125" fill="none" xmlns="http://www.w3.org/2000/svg">
<g clip-path="url(#clip0_597_327)">
<path d="M5.36203 71.1353C4.33887 71.1298 3.34853 70.835 2.48951 70.2889C0.930148 69.2952 0 67.6025 0 65.757L0.0164144 21.1036L48.6522 21.1145L48.696 55.3062C48.696 56.7422 48.1379 58.0964 47.1147 59.112C46.0971 60.1275 44.7401 60.6899 43.3011 60.6899H43.2683C40.3082 60.6736 37.9063 58.2656 37.9063 55.3062L37.8625 31.8711H10.8007L10.7842 65.7515C10.7842 68.7219 8.36586 71.1353 5.38939 71.1298H5.36203V71.1353Z" fill="#1226AA"/>
<path d="M24.1455 15.911C28.5483 15.911 32.1174 12.3492 32.1174 7.95549C32.1174 3.56179 28.5483 0 24.1455 0C19.7427 0 16.1736 3.56179 16.1736 7.95549C16.1736 12.3492 19.7427 15.911 24.1455 15.911Z" fill="#1226AA"/>
<path d="M62.3144 29.8672C63.3376 29.8727 64.3279 30.1675 65.1869 30.7135C66.7463 31.7073 67.6765 33.4054 67.6765 35.251L67.6601 79.8989L19.0242 79.888L18.9805 45.6963C18.9805 44.2603 19.5386 42.9061 20.5617 41.8905C21.5794 40.875 22.9363 40.3126 24.3753 40.3126H24.4082C27.3682 40.3289 29.7702 42.7369 29.7702 45.6963L29.814 69.1314H56.8813L56.8977 35.251C56.8977 32.2806 59.3161 29.8672 62.2925 29.8727H62.3199L62.3144 29.8672Z" fill="#F16752"/>
<path d="M43.5145 100.964C47.8962 100.964 51.4482 97.4196 51.4482 93.047C51.4482 88.6744 47.8962 85.1297 43.5145 85.1297C39.1329 85.1297 35.5809 88.6744 35.5809 93.047C35.5809 97.4196 39.1329 100.964 43.5145 100.964Z" fill="#F16752"/>
<path d="M149.792 59.8436C149.792 46.2641 158.081 39.3734 167.886 39.3734C174.102 39.3734 179.628 42.4038 181.91 47.853V43.5777C181.91 41.3718 183.152 40.1323 185.362 40.1323H186.188C188.399 40.1323 189.641 41.3718 189.641 43.5777V76.044C189.641 78.2499 188.399 79.4894 186.188 79.4894H185.362C183.152 79.4894 181.91 78.2499 181.91 76.044V72.0471C179.699 77.3544 174.107 80.4558 167.957 80.4558C158.153 80.4558 149.792 73.4941 149.792 59.8491V59.8436ZM182.118 59.8436C182.118 51.2274 177.078 45.9201 169.752 45.9201C162.426 45.9201 157.529 51.1565 157.529 59.8436C157.529 68.5308 162.502 73.8381 169.894 73.8381C177.286 73.8381 182.118 68.5308 182.118 59.8436Z" fill="#1226AA"/>
<path d="M233.703 40.1324C235.913 40.1324 237.155 41.3718 237.155 43.5777V72.7351C237.155 87.4831 230.179 93.8278 217.124 93.8278C209.524 93.8278 203.516 91.1414 200.135 86.2436C198.685 84.2452 199.654 82.4542 201.93 81.9028L202.69 81.6953C204.622 81.2148 205.869 81.9028 207.177 83.4862C209.458 86.1071 212.977 87.6906 217.19 87.6906C224.992 87.6906 229.413 83.8302 229.413 73.9746V70.5292C227.202 75.7 221.611 78.6649 215.461 78.6649C205.585 78.6649 197.295 72.1181 197.295 59.0191C197.295 45.9201 205.585 39.4444 215.39 39.4444C221.611 39.4444 227.202 42.4092 229.407 47.651V43.5832C229.407 41.3773 230.649 40.1378 232.86 40.1378H233.692L233.703 40.1324ZM229.561 59.0191C229.561 50.5395 224.658 45.3741 217.266 45.3741C209.874 45.3741 205.043 50.5449 205.043 59.0191C205.043 67.4933 209.945 72.7351 217.337 72.7351C224.729 72.7351 229.561 67.5643 229.561 59.0191Z" fill="#1226AA"/>
<path d="M266.849 39.4444C277.759 39.4444 282.803 45.7181 282.803 58.1946V76.115C282.803 78.3209 281.561 79.5603 279.351 79.5603H278.525C276.314 79.5603 275.072 78.3209 275.072 76.115V58.8171C275.072 50.2009 271.757 46.1331 264.436 46.1331C257.115 46.1331 253.936 51.0254 253.936 59.7126V76.115C253.936 78.3209 252.694 79.5603 250.483 79.5603H249.652C247.441 79.5603 246.199 78.3209 246.199 76.115V43.5832C246.199 41.3773 247.441 40.1378 249.652 40.1378H250.483C252.694 40.1378 253.936 41.3773 253.936 43.5832V47.5036C255.731 42.9334 260.217 39.4498 266.849 39.4498V39.4444Z" fill="#1226AA"/>
<path d="M291.492 76.1095V43.5777C291.492 41.3718 292.712 40.1324 294.884 40.1324H295.765C297.932 40.1324 299.158 41.3718 299.158 43.5777V76.1095C299.158 78.3154 297.937 79.5549 295.765 79.5549H294.884C292.718 79.5549 291.492 78.3154 291.492 76.1095Z" fill="#1226AA"/>
<path d="M325.908 80.1118C315.753 80.1118 311.129 75.9075 311.129 63.8459V46.1331H308.848C306.637 46.1331 305.395 45.0301 305.395 43.1027C305.395 41.1752 306.429 40.1378 308.295 40.1378H311.129V36.0045C311.129 33.935 312.163 32.6956 314.166 32.2806L315.134 32.0731C317.553 31.5216 318.931 32.6956 318.931 35.1035V40.1324H327.15C329.36 40.1324 330.602 41.1643 330.602 43.0972C330.602 45.0301 329.36 46.1276 327.15 46.1276H318.931V62.945C318.931 71.0807 321.071 73.9036 327.084 73.9036C329.223 73.9036 330.618 74.6571 330.81 76.5245C331.029 78.6266 330.104 79.8334 327.91 80.0408C327.221 80.1009 326.526 80.1064 325.908 80.1064V80.1118Z" fill="#1226AA"/>
<path d="M142.597 76.1641L141.88 32.783C141.497 30.6316 140.469 29.6597 138.171 29.6597H134.817C132.595 29.6597 131.135 30.6316 130.445 32.5045L115.732 67.8373L100.992 32.5045C100.303 30.6316 98.8474 29.6597 96.6206 29.6597H93.6441C91.3461 29.6597 89.8852 30.6316 89.5022 32.783L88.7854 76.1641C88.7143 78.6431 89.628 79.9153 92.2379 79.9153H93.8848C96.5057 79.959 97.2607 78.3264 97.2607 76.2351L96.6698 40.4873L110.316 73.4067C111.005 75.2796 112.46 76.2515 114.687 76.2515H116.772C118.993 76.2515 120.454 75.2796 121.144 73.4067L134.789 40.4873L134.199 76.2351C134.199 78.3264 134.954 79.9535 137.574 79.9153H139.139C141.744 79.9153 142.663 78.6485 142.592 76.1641H142.597Z" fill="#1226AA"/>
<path d="M295.388 35.3492C297.92 35.3492 299.973 33.3007 299.973 30.7736C299.973 28.2465 297.92 26.198 295.388 26.198C292.855 26.198 290.803 28.2465 290.803 30.7736C290.803 33.3007 292.855 35.3492 295.388 35.3492Z" fill="#F16752"/>
<path d="M102.322 110.165V113.108H97.5507V124.776H93.7371V113.108H88.9441V110.165H102.322Z" fill="#F16752"/>
<path d="M104.051 124.776V109.013H107.821V115.723C108.143 114.986 108.614 114.429 109.216 114.052C109.823 113.676 110.523 113.49 111.322 113.49C112.121 113.49 112.761 113.637 113.33 113.932C113.899 114.227 114.348 114.664 114.671 115.237C114.994 115.811 115.158 116.537 115.158 117.405V124.776H111.388V118.442C111.388 117.645 111.246 117.094 110.956 116.793C110.666 116.493 110.288 116.34 109.812 116.34C109.457 116.34 109.123 116.428 108.816 116.608C108.505 116.782 108.264 117.066 108.083 117.449C107.903 117.831 107.815 118.333 107.815 118.956V124.776H104.045H104.051Z" fill="#F16752"/>
<path d="M123.223 125C121.997 125 120.936 124.771 120.038 124.312C119.141 123.853 118.452 123.198 117.965 122.341C117.478 121.484 117.232 120.452 117.232 119.24C117.232 118.027 117.478 116.995 117.965 116.138C118.452 115.281 119.136 114.626 120.017 114.167C120.897 113.708 121.904 113.479 123.048 113.479C124.191 113.479 125.209 113.703 126.03 114.156C126.85 114.604 127.474 115.226 127.906 116.018C128.333 116.81 128.552 117.711 128.552 118.732C128.552 118.999 128.547 119.261 128.53 119.529C128.514 119.796 128.492 120.015 128.464 120.195H119.677V118.18H126.801L125.007 118.868C125.007 117.984 124.848 117.301 124.531 116.832C124.213 116.362 123.721 116.122 123.053 116.122C122.577 116.122 122.178 116.231 121.844 116.455C121.51 116.679 121.259 117.023 121.089 117.498C120.919 117.967 120.832 118.573 120.832 119.31C120.832 120.048 120.93 120.621 121.122 121.069C121.313 121.522 121.587 121.844 121.942 122.041C122.298 122.237 122.725 122.341 123.228 122.341C123.792 122.341 124.241 122.232 124.569 122.008C124.897 121.784 125.149 121.478 125.313 121.08L128.333 122.079C128.125 122.712 127.77 123.247 127.255 123.684C126.741 124.121 126.139 124.449 125.439 124.667C124.738 124.891 124 125 123.228 125H123.223Z" fill="#F16752"/>
<path d="M137.263 124.776V110.165H148.665V113.108H141.076V116.073H147.111V118.841H141.076V121.828H148.955V124.771H137.263V124.776Z" fill="#F16752"/>
<path d="M157.923 113.708H161.829L157.835 124.776H153.332L149.338 113.708H153.31L155.597 122.144L157.928 113.708H157.923Z" fill="#F16752"/>
<path d="M168.237 113.484C169.407 113.484 170.431 113.708 171.311 114.162C172.192 114.615 172.882 115.27 173.374 116.133C173.867 116.995 174.118 118.033 174.118 119.245C174.118 120.457 173.872 121.495 173.374 122.357C172.876 123.22 172.192 123.875 171.311 124.328C170.431 124.782 169.407 125.005 168.237 125.005C167.066 125.005 166.086 124.782 165.194 124.328C164.303 123.875 163.613 123.22 163.121 122.357C162.623 121.495 162.377 120.457 162.377 119.245C162.377 118.033 162.623 116.995 163.121 116.133C163.619 115.27 164.308 114.615 165.194 114.162C166.081 113.708 167.093 113.484 168.237 113.484ZM168.237 116.165C167.81 116.165 167.438 116.269 167.126 116.477C166.814 116.684 166.579 117.017 166.415 117.476C166.25 117.935 166.168 118.524 166.168 119.245C166.168 119.966 166.25 120.555 166.415 121.003C166.579 121.451 166.814 121.784 167.126 121.997C167.438 122.21 167.804 122.319 168.237 122.319C168.669 122.319 169.057 122.21 169.369 121.997C169.681 121.784 169.916 121.451 170.08 121.003C170.245 120.555 170.327 119.966 170.327 119.245C170.327 118.524 170.245 117.929 170.08 117.476C169.916 117.023 169.681 116.684 169.369 116.477C169.057 116.269 168.68 116.165 168.237 116.165Z" fill="#F16752"/>
<path d="M179.973 109.013V121.014C179.973 121.5 180.055 121.849 180.219 122.057C180.383 122.264 180.657 122.368 181.04 122.368C181.264 122.368 181.445 122.352 181.592 122.325C181.74 122.297 181.915 122.254 182.123 122.193L181.877 124.454C181.609 124.618 181.264 124.749 180.832 124.853C180.4 124.956 179.984 125.005 179.568 125.005C178.386 125.005 177.527 124.732 176.996 124.186C176.466 123.64 176.198 122.745 176.198 121.505V109.018H179.967L179.973 109.013Z" fill="#F16752"/>
<path d="M187.255 125C186.5 125 185.838 124.869 185.269 124.612C184.7 124.356 184.251 123.935 183.929 123.362C183.6 122.789 183.442 122.035 183.442 121.101V113.708H187.211V120.217C187.211 120.927 187.354 121.418 187.633 121.702C187.912 121.981 188.311 122.122 188.831 122.122C189.099 122.122 189.351 122.073 189.586 121.981C189.821 121.882 190.029 121.735 190.21 121.538C190.385 121.336 190.522 121.08 190.62 120.763C190.719 120.446 190.762 120.075 190.762 119.644V113.708H194.532V124.776H191.162L191.052 122.696C190.697 123.477 190.204 124.055 189.564 124.432C188.93 124.809 188.158 124.995 187.255 124.995V125Z" fill="#F16752"/>
<path d="M205.18 113.708V116.389H196.196V113.708H205.18ZM201.875 110.187V120.834C201.875 121.364 202.006 121.746 202.264 121.975C202.521 122.204 202.882 122.319 203.341 122.319C203.697 122.319 204.003 122.281 204.261 122.199C204.518 122.117 204.753 121.997 204.961 121.833L205.36 124.159C204.988 124.427 204.523 124.634 203.965 124.782C203.402 124.929 202.827 125.005 202.236 125.005C201.394 125.005 200.666 124.885 200.053 124.651C199.44 124.416 198.964 124.039 198.63 123.52C198.297 123.002 198.122 122.319 198.111 121.462V111.235L201.881 110.192L201.875 110.187Z" fill="#F16752"/>
<path d="M208.818 112.425C208.047 112.425 207.489 112.283 207.144 111.994C206.794 111.704 206.624 111.251 206.624 110.634C206.624 110.017 206.799 109.537 207.144 109.247C207.489 108.958 208.052 108.816 208.818 108.816C209.584 108.816 210.126 108.958 210.482 109.247C210.837 109.537 211.012 109.995 211.012 110.634C211.012 111.273 210.837 111.71 210.482 111.994C210.126 112.283 209.573 112.425 208.818 112.425ZM210.706 113.708V124.776H206.936V113.708H210.706Z" fill="#F16752"/>
<path d="M218.667 113.484C219.838 113.484 220.861 113.708 221.742 114.162C222.623 114.615 223.312 115.27 223.805 116.133C224.297 116.995 224.549 118.033 224.549 119.245C224.549 120.457 224.303 121.495 223.805 122.357C223.307 123.22 222.623 123.875 221.742 124.328C220.861 124.782 219.838 125.005 218.667 125.005C217.496 125.005 216.517 124.782 215.625 124.328C214.733 123.875 214.044 123.22 213.551 122.357C213.053 121.495 212.807 120.457 212.807 119.245C212.807 118.033 213.053 116.995 213.551 116.133C214.049 115.27 214.738 114.615 215.625 114.162C216.511 113.708 217.523 113.484 218.667 113.484ZM218.667 116.165C218.24 116.165 217.868 116.269 217.556 116.477C217.244 116.684 217.009 117.017 216.845 117.476C216.681 117.935 216.599 118.524 216.599 119.245C216.599 119.966 216.681 120.555 216.845 121.003C217.009 121.451 217.244 121.784 217.556 121.997C217.868 122.21 218.235 122.319 218.667 122.319C219.099 122.319 219.488 122.21 219.8 121.997C220.111 121.784 220.347 121.451 220.511 121.003C220.675 120.555 220.757 119.966 220.757 119.245C220.757 118.524 220.675 117.929 220.511 117.476C220.347 117.023 220.111 116.684 219.8 116.477C219.488 116.269 219.11 116.165 218.667 116.165Z" fill="#F16752"/>
<path d="M226.677 124.776V113.708H230.048L230.25 117.514L229.829 117.094C229.976 116.296 230.239 115.63 230.617 115.101C230.994 114.571 231.465 114.167 232.034 113.894C232.603 113.621 233.243 113.484 233.954 113.484C234.726 113.484 235.393 113.632 235.962 113.927C236.531 114.222 236.98 114.658 237.303 115.232C237.626 115.805 237.79 116.531 237.79 117.399V124.771H234.02V118.393C234.02 117.623 233.872 117.094 233.577 116.799C233.281 116.504 232.904 116.357 232.444 116.357C232.088 116.357 231.755 116.444 231.448 116.613C231.136 116.782 230.896 117.05 230.715 117.421C230.54 117.793 230.447 118.284 230.447 118.906V124.776H226.677V124.776Z" fill="#F16752"/>
<path d="M252.059 113.484C253.23 113.484 254.253 113.708 255.134 114.162C256.015 114.615 256.705 115.27 257.197 116.133C257.689 116.995 257.941 118.033 257.941 119.245C257.941 120.457 257.695 121.495 257.197 122.357C256.699 123.22 256.015 123.875 255.134 124.328C254.253 124.782 253.23 125.005 252.059 125.005C250.888 125.005 249.909 124.782 249.017 124.328C248.125 123.875 247.436 123.22 246.943 122.357C246.446 121.495 246.199 120.457 246.199 119.245C246.199 118.033 246.446 116.995 246.943 116.133C247.441 115.27 248.131 114.615 249.017 114.162C249.904 113.708 250.916 113.484 252.059 113.484ZM252.059 116.165C251.632 116.165 251.26 116.269 250.949 116.477C250.637 116.684 250.401 117.017 250.237 117.476C250.073 117.935 249.991 118.524 249.991 119.245C249.991 119.966 250.073 120.555 250.237 121.003C250.401 121.451 250.637 121.784 250.949 121.997C251.26 122.21 251.627 122.319 252.059 122.319C252.492 122.319 252.88 122.21 253.192 121.997C253.504 121.784 253.739 121.451 253.903 121.003C254.067 120.555 254.149 119.966 254.149 119.245C254.149 118.524 254.067 117.929 253.903 117.476C253.739 117.023 253.504 116.684 253.192 116.477C252.88 116.269 252.502 116.165 252.059 116.165Z" fill="#F16752"/>
<path d="M267.658 113.708V116.389H258.959V113.708H267.658ZM265.152 108.707C265.76 108.707 266.29 108.772 266.75 108.892C267.21 109.018 267.549 109.16 267.773 109.324L267.396 111.672C267.232 111.568 267.046 111.486 266.843 111.426C266.635 111.366 266.378 111.339 266.066 111.339C265.546 111.339 265.125 111.459 264.791 111.694C264.458 111.928 264.293 112.343 264.293 112.933V114.374L264.518 114.991V124.776H260.748V112.687C260.748 111.977 260.863 111.371 261.093 110.875C261.322 110.378 261.645 109.957 262.056 109.635C262.471 109.313 262.942 109.073 263.473 108.925C264.003 108.778 264.567 108.701 265.158 108.701L265.152 108.707Z" fill="#F16752"/>
<path d="M277.863 124.776L273.65 110.165H277.709L280.194 121.702L282.814 110.165H286.278L288.964 121.68L291.405 110.165H295.333L291.098 124.776H286.951L285.222 117.689L284.554 114.123H284.51L283.865 117.689L282.158 124.776H277.874H277.863Z" fill="#F16752"/>
<path d="M301.007 113.484C302.178 113.484 303.201 113.708 304.082 114.162C304.963 114.615 305.652 115.27 306.145 116.133C306.637 116.995 306.889 118.033 306.889 119.245C306.889 120.457 306.643 121.495 306.145 122.357C305.647 123.22 304.963 123.875 304.082 124.328C303.201 124.782 302.178 125.005 301.007 125.005C299.836 125.005 298.857 124.782 297.965 124.328C297.073 123.875 296.384 123.22 295.891 122.357C295.393 121.495 295.147 120.457 295.147 119.245C295.147 118.033 295.393 116.995 295.891 116.133C296.389 115.27 297.078 114.615 297.965 114.162C298.851 113.708 299.863 113.484 301.007 113.484ZM301.007 116.165C300.58 116.165 300.208 116.269 299.896 116.477C299.584 116.684 299.349 117.017 299.185 117.476C299.021 117.935 298.939 118.524 298.939 119.245C298.939 119.966 299.021 120.555 299.185 121.003C299.349 121.451 299.584 121.784 299.896 121.997C300.208 122.21 300.575 122.319 301.007 122.319C301.439 122.319 301.828 122.21 302.14 121.997C302.451 121.784 302.687 121.451 302.851 121.003C303.015 120.555 303.097 119.966 303.097 119.245C303.097 118.524 303.015 117.929 302.851 117.476C302.687 117.023 302.451 116.684 302.14 116.477C301.828 116.269 301.45 116.165 301.007 116.165Z" fill="#F16752"/>
<path d="M309.012 124.776V113.708H312.338L312.492 116.1C312.771 115.275 313.192 114.631 313.745 114.172C314.297 113.714 315.003 113.484 315.862 113.484C316.141 113.484 316.382 113.506 316.584 113.55C316.781 113.594 316.94 113.654 317.06 113.725L316.683 116.826C316.535 116.766 316.343 116.717 316.119 116.684C315.889 116.646 315.61 116.63 315.287 116.63C314.844 116.63 314.428 116.728 314.045 116.919C313.662 117.11 313.356 117.394 313.126 117.771C312.896 118.147 312.782 118.623 312.782 119.201V124.782H309.012V124.776Z" fill="#F16752"/>
<path d="M322.324 109.013V124.776H318.554V109.013H322.324ZM330.733 113.708L325.41 119.376L324.698 119.578L321.525 123.122L321.503 119.267L326.537 113.708H330.728H330.733ZM325.984 117.028L330.974 124.776H326.805L323.522 119.24L325.984 117.028V117.028Z" fill="#F16752"/>
<path d="M337.496 41.35H336.243C335.926 41.35 335.663 41.0879 335.663 40.7712C335.663 40.4545 335.926 40.1924 336.243 40.1924H340.051C340.369 40.1924 340.631 40.4545 340.631 40.7712C340.631 41.0879 340.369 41.35 340.051 41.35H338.798V45.396C338.798 45.7509 338.497 46.0457 338.147 46.0457C337.797 46.0457 337.496 45.7454 337.496 45.396V41.35Z" fill="#1226AA"/>
<path d="M341.244 40.7548C341.244 40.3999 341.523 40.1214 341.879 40.1214H342.026C342.289 40.1214 342.491 40.2689 342.606 40.4545L344.116 42.9334L345.665 40.4545C345.796 40.2306 345.966 40.1214 346.223 40.1214H346.371C346.704 40.1214 346.989 40.3999 346.989 40.7548V45.4342C346.989 45.7673 346.71 46.0512 346.371 46.0512C346.031 46.0512 345.752 45.7727 345.752 45.4342V42.4365L344.631 44.1674C344.499 44.3749 344.352 44.5005 344.105 44.5005C343.859 44.5005 343.712 44.3913 343.564 44.1674L342.464 42.4693V45.4342C342.464 45.7673 342.185 46.0512 341.846 46.0512C341.507 46.0512 341.228 45.7727 341.228 45.4342V40.7548H341.244Z" fill="#1226AA"/>
<path d="M337.496 114.915H336.243C335.926 114.915 335.663 114.653 335.663 114.336C335.663 114.02 335.926 113.757 336.243 113.757H340.051C340.369 113.757 340.631 114.02 340.631 114.336C340.631 114.653 340.369 114.915 340.051 114.915H338.798V118.961C338.798 119.316 338.497 119.611 338.147 119.611C337.797 119.611 337.496 119.31 337.496 118.961V114.915Z" fill="#F16752"/>
<path d="M341.244 114.32C341.244 113.965 341.523 113.686 341.879 113.686H342.026C342.289 113.686 342.491 113.834 342.606 114.02L344.116 116.498L345.665 114.02C345.796 113.796 345.966 113.686 346.223 113.686H346.371C346.704 113.686 346.989 113.965 346.989 114.32V118.999C346.989 119.332 346.71 119.616 346.371 119.616C346.031 119.616 345.752 119.338 345.752 118.999V116.002L344.631 117.732C344.499 117.94 344.352 118.066 344.105 118.066C343.859 118.066 343.712 117.956 343.564 117.732L342.464 116.034V118.999C342.464 119.332 342.185 119.616 341.846 119.616C341.507 119.616 341.228 119.338 341.228 118.999V114.32H341.244Z" fill="#F16752"/>
</g>
<defs>
<clipPath id="clip0_597_327">
<rect width="347" height="125" fill="white"/>
</clipPath>
</defs>
</svg>
